PathFileType	4	(X/Y/Z)	 s05c0301.trc
DataRate	CameraRate	NumFrames	NumMarkers	Units	OrigDataRate	OrigDataStartFrame	OrigNumFrames
200	200	5	50	mm	200	1	2000
Frame#	Time	racr			lacr			c7			jug			rlel			rdr			llel			ldr			s2			lic			ric			lasi			rasi			rpsi			lpsi			rgt			lgt			rth1			rth2			rth3			rth4			rlfc			rmfc			rsh1			rsh2			rsh3			rsh4			rlmal			rmmal			rcal			rtoe			rmt5			lth1			lth2			lth4			lth3			llfc			lmfc			lsh1			lsh2			lsh3			lsh4			llmal			lmmal			lcal			ltoe			lmt5			SBIKE			LBIKE			RBIKE			
		X1	Y1	Z1	X2	Y2	Z2	X3	Y3	Z3	X4	Y4	Z4	X5	Y5	Z5	X6	Y6	Z6	X7	Y7	Z7	X8	Y8	Z8	X9	Y9	Z9	X10	Y10	Z10	X11	Y11	Z11	X12	Y12	Z12	X13	Y13	Z13	X14	Y14	Z14	X15	Y15	Z15	X16	Y16	Z16	X17	Y17	Z17	X18	Y18	Z18	X19	Y19	Z19	X20	Y20	Z20	X21	Y21	Z21	X22	Y22	Z22	X23	Y23	Z23	X24	Y24	Z24	X25	Y25	Z25	X26	Y26	Z26	X27	Y27	Z27	X28	Y28	Z28	X29	Y29	Z29	X30	Y30	Z30	X31	Y31	Z31	X32	Y32	Z32	X33	Y33	Z33	X34	Y34	Z34	X35	Y35	Z35	X36	Y36	Z36	X37	Y37	Z37	X38	Y38	Z38	X39	Y39	Z39	X40	Y40	Z40	X41	Y41	Z41	X42	Y42	Z42	X43	Y43	Z43	X44	Y44	Z44	X45	Y45	Z45	X46	Y46	Z46	X47	Y47	Z47	X48	Y48	Z48	X49	Y49	Z49	X50	Y50	Z50	
1	0.0050	417.010099	1362.235110	-129.958747	418.334434	1372.828815	-423.093607	403.275474	1456.041305	-279.201175	383.936476	1298.817472	-277.967812	503.807351	1116.703166	-34.020795	684.385548	921.040826	-75.896145	486.721805	1111.407866	-507.641690	683.695933	923.284034	-439.479671	-105.237757	1160.362149	-264.907089	41.916429	1176.628059	-410.430425	45.662855	1193.828234	-129.566448	91.488044	1124.256933	-376.464427	85.945547	1132.642438	-157.058676	-73.951754	1206.997065	-226.294095	-71.205155	1208.797726	-311.652346	6.252014	1066.743592	-92.848854	-28.929025	1067.691376	-434.559075	105.680974	1007.332917	-78.707077	193.738103	992.074424	-72.288446	260.324479	934.102128	-73.536455	209.195130	1024.253579	-84.546131	393.363636	854.542950	-99.355055	381.938392	850.682042	-209.585159	331.113994	761.238080	-78.135666	323.532243	674.238641	-90.027812	274.648835	602.867384	-96.489739	351.846597	666.655018	-115.246647	234.619210	475.593796	-110.494076	247.809279	506.122941	-188.228038	163.921092	442.733991	-157.500048	458.449506	425.288215	-145.388798	356.541955	399.289534	-83.072516	52.046311	951.028621	-458.238841	121.654555	901.643190	-462.223635	151.428946	921.765001	-450.193523	156.776312	817.528467	-465.381265	232.775922	684.814525	-444.475226	222.983063	677.507830	-334.626684	139.621560	597.152593	-463.548863	100.558371	519.721037	-447.861824	25.896675	472.022265	-445.507307	124.844958	503.261136	-424.048930	-49.649627	374.272576	-431.789915	-16.483418	394.155296	-355.484008	-121.916311	351.443030	-386.956841	156.222153	256.511397	-396.482071	44.848215	260.082948	-458.038271	-215.348145	914.057300	-268.020968	-43.589001	85.093839	-474.892307	-51.630938	79.742824	-77.335534	
2	0.0100	416.964276	1362.244298	-129.885338	418.338697	1372.880129	-423.071312	403.278127	1455.981050	-279.141602	383.900043	1298.840134	-277.932134	503.878543	1116.752579	-34.101498	684.387764	921.026235	-75.900298	486.949297	1111.619846	-507.702299	683.708854	923.277918	-439.485396	-105.253517	1160.388742	-264.898906	41.894150	1176.629527	-410.423536	45.647010	1193.835330	-129.562107	91.466014	1124.239475	-376.458405	85.932669	1132.648760	-157.058512	-73.949838	1207.028627	-226.297523	-71.181085	1208.813068	-311.664750	6.203988	1066.718153	-92.849184	-28.940003	1067.707044	-434.536661	105.610976	1007.284282	-78.650386	193.655800	992.018851	-72.207948	260.248938	934.051909	-73.485511	209.130821	1024.218909	-84.473082	393.277517	854.488468	-99.276608	381.881925	850.648622	-209.566148	331.053063	761.188712	-78.114901	323.472138	674.156940	-89.992920	274.599142	602.785666	-96.471607	351.800563	666.587541	-115.223765	234.643468	475.502036	-110.494924	247.806163	506.039241	-188.223229	163.955358	442.632769	-157.497575	458.448335	425.249178	-145.386926	356.551038	399.233842	-83.081762	52.045913	951.041663	-458.238930	121.656261	901.666725	-462.215152	151.447802	921.823094	-450.189525	156.785895	817.586485	-465.381052	232.822726	684.871474	-444.489322	223.039079	677.546708	-334.642976	139.647204	597.220620	-463.560199	100.593023	519.789712	-447.895151	25.925865	472.090894	-445.519314	124.859880	503.334783	-424.026114	-49.649187	374.380014	-431.796113	-16.474797	394.269363	-355.500715	-121.912406	351.554403	-386.949677	156.198818	256.559539	-396.475203	44.832998	260.152417	-458.034436	-215.347584	914.044791	-268.034529	-43.607043	85.090407	-474.910758	-51.622066	79.741982	-77.331089	
3	0.0150	416.927721	1362.265823	-129.848005	418.320313	1372.951305	-423.018616	403.300519	1455.960487	-279.090591	383.913449	1298.839766	-277.902815	503.947477	1116.798131	-34.130428	684.395806	921.008052	-75.912723	487.126584	1111.762098	-507.598198	683.722272	923.281822	-439.467783	-105.266992	1160.400761	-264.897935	41.921993	1176.656746	-410.439152	45.648188	1193.832087	-129.563207	91.462811	1124.212490	-376.450548	85.887710	1132.651365	-157.035717	-73.966046	1207.053394	-226.286587	-71.181581	1208.822182	-311.648989	6.132296	1066.708988	-92.824588	-28.951364	1067.724496	-434.529017	105.545777	1007.249424	-78.606322	193.576483	991.967732	-72.152344	260.170625	933.987513	-73.422436	209.058580	1024.160678	-84.399965	393.202787	854.409319	-99.225527	381.825322	850.590265	-209.488170	330.983083	761.128313	-78.070738	323.433964	674.074537	-89.962046	274.537019	602.681031	-96.434413	351.765950	666.537389	-115.177718	234.630188	475.442657	-110.483219	247.812127	505.939963	-188.216738	163.959851	442.509179	-157.491449	458.470764	425.218445	-145.385566	356.565903	399.170651	-83.075703	52.041883	951.083491	-458.232006	121.660442	901.709722	-462.217389	151.455238	921.874728	-450.179500	156.807182	817.619870	-465.374240	232.852012	684.926153	-444.493985	223.076169	677.600502	-334.657841	139.680726	597.284149	-463.563068	100.620243	519.840391	-447.886491	25.941580	472.169054	-445.517580	124.888196	503.406629	-424.021129	-49.646319	374.466099	-431.785632	-16.496525	394.365051	-355.467225	-121.908864	351.648061	-386.938691	156.174484	256.590368	-396.473009	44.822701	260.207429	-458.017620	-215.341573	914.043572	-268.031735	-43.609622	85.098296	-474.913807	-51.616173	79.736873	-77.341984	
4	0.0200	416.904868	1362.275475	-129.792337	418.628544	1372.938034	-423.075010	403.308907	1455.940678	-279.034529	383.877065	1298.849584	-277.865177	504.007797	1116.863729	-34.189874	684.367216	920.965575	-75.829074	487.304605	1111.944180	-507.486910	683.746699	923.288343	-439.499296	-105.273819	1160.415588	-264.900749	41.909817	1176.644096	-410.395323	45.433957	1194.128113	-130.257667	91.289853	1124.695818	-376.403193	85.864833	1132.676129	-157.026984	-73.983705	1207.076540	-226.292762	-71.198405	1208.841655	-311.639263	5.992944	1066.611889	-92.809020	-28.956447	1067.747383	-434.531572	105.457597	1007.205655	-78.556705	193.481015	991.900328	-72.103102	259.930995	933.886981	-73.461862	208.989957	1024.104446	-84.345115	393.115552	854.345762	-99.163977	381.764609	850.534903	-209.451060	330.900916	761.081287	-78.036705	322.258750	672.873844	-90.575209	274.480687	602.575513	-96.411796	352.086742	666.439461	-114.912255	234.327402	475.838166	-110.231292	247.874838	505.804092	-188.215311	163.952539	442.383035	-157.489822	458.478652	425.182969	-145.385558	356.595283	399.105178	-83.075062	52.185731	951.187372	-458.376785	121.823788	901.169831	-461.861319	151.283909	921.830250	-449.972744	157.083887	817.553415	-464.685652	232.892480	684.975246	-444.502067	223.117684	677.636749	-334.680075	139.715519	597.350661	-463.571366	100.655103	519.912900	-447.898254	25.905411	472.266655	-445.549361	124.092407	503.525509	-422.792969	-49.678665	374.645361	-431.853272	-16.494918	394.438152	-355.467207	-121.908438	351.752836	-386.938195	156.155864	256.626500	-396.474078	44.810249	260.286623	-458.035238	-215.496559	914.179717	-268.723073	-43.612797	85.081953	-474.910527	-51.601442	79.734834	-77.340068	
5	0.0250	416.819942	1362.679039	-129.508667	418.548161	1373.523841	-422.958589	403.298935	1455.947284	-279.038066	383.807850	1299.262040	-277.764458	503.941933	1117.159640	-34.106279	684.382338	920.854252	-75.806259	487.645187	1112.461885	-507.809747	683.650766	923.132611	-439.393579	-105.362963	1160.496245	-264.863057	41.893088	1176.607698	-410.295581	45.396280	1194.231328	-130.621550	91.320916	1124.691567	-376.382890	85.760179	1132.663312	-156.994809	-73.961228	1207.204473	-226.460522	-71.178433	1208.884359	-311.656769	5.657635	1067.003213	-92.633900	-29.008656	1067.829015	-434.480609	105.206950	1007.488578	-78.351482	193.278746	992.146136	-71.906336	259.663100	934.218067	-73.260455	208.859444	1024.275521	-84.137346	393.018047	854.288669	-99.014750	381.564333	850.834970	-209.131756	330.668658	761.312946	-77.875594	322.075357	673.207958	-90.359633	274.238477	602.801604	-96.263930	351.982870	666.701746	-114.625255	234.312706	475.729307	-110.204092	247.610159	505.903656	-188.191336	163.890801	442.269171	-157.436215	458.389074	425.340454	-145.333882	356.366465	399.370982	-82.854335	52.075196	951.218392	-458.126620	121.856802	901.236631	-461.885283	151.309247	921.888664	-450.013600	157.125908	817.633867	-464.736573	232.929692	685.197977	-444.557155	222.873869	678.238763	-334.277854	139.719634	597.585389	-463.624720	100.561938	520.253440	-447.893909	25.941160	472.297213	-445.562437	124.104780	503.710454	-422.778150	-49.767214	374.763070	-431.958448	-16.548805	394.599603	-355.456393	-121.974333	351.838860	-386.963881	156.108381	256.669638	-396.479336	44.770332	260.330752	-458.045101	-215.502143	914.120349	-268.822473	-43.723005	84.949015	-475.068522	-51.837238	80.112095	-77.367558	
